#N canvas 15 300 974 779 10;
#X obj 92 29 bng 50 250 50 0 empty empty start 17 7 0 10 -4034 -1 -1
;
#X obj 144 29 loadbang;
#X obj 22 60 r oscmsg;
#X obj 22 82 packOSC;
#X obj 22 124 udpsend;
#X obj 24 203 hsl 128 15 0 1 0 1 empty empty red -2 -8 0 10 -258113
-1 -1 12700 1;
#X obj 24 243 hsl 128 15 0 1 0 1 empty empty green -2 -8 0 10 -4034
-1 -1 12700 1;
#X obj 24 283 hsl 128 15 0 1 0 1 empty empty blue -2 -8 0 10 -4160
-262144 -1 12700 1;
#X obj 24 323 hsl 128 15 0 1 0 1 empty empty alpha -2 -8 0 10 -33289
-262144 -1 12700 1;
#X obj 241 364 s oscmsg;
#X msg 166 364 opacity;
#X obj 241 291 symbol;
#X msg 92 102 disconnect;
#X msg 92 82 connect 127.0.0.1 23000;
#X obj 241 320 pack s f;
#X obj 166 343 t b f;
#X obj 166 302 t b f;
#X msg 166 323 blue;
#X obj 166 262 t b f;
#X msg 166 283 green;
#X obj 166 222 t b f;
#X msg 166 243 red;
#X msg 241 342 send /top \$1 \$2;
#X obj 21 614 s oscmsg;
#X obj 21 570 pack s s;
#X msg 21 517 tex;
#X obj 21 540 symbol;
#X obj 81 540 symbol;
#X obj 21 456 bng 15 250 50 0 empty empty load_puke.png 17 7 0 10 -4034
-1 -1;
#X obj 21 476 t b b;
#X msg 21 592 send /front \$1 \$2;
#X obj 163 540 symbol;
#X obj 131 456 bng 15 250 50 0 empty empty load_demo 17 7 0 10 -4034
-1 -1;
#X obj 131 476 t b b;
#X msg 163 517 demo;
#X obj 243 540 symbol;
#X obj 211 456 bng 15 250 50 0 empty empty load_mass_prod 17 7 0 10
-4034 -1 -1;
#X obj 211 476 t b b;
#X text 20 158 RGBA CONTROLS;
#X text 20 418 RGBA TEXTURE CONTROL;
#X text 20 168 *************;
#X text 20 428 ********************;
#X obj 401 344 s oscmsg;
#X obj 401 270 symbol;
#X obj 401 186 bng 15 250 50 0 empty empty show 17 7 0 10 -4034 -1
-1;
#X obj 401 206 t b b;
#X msg 401 322 send /side \$1;
#X msg 401 247 show;
#X obj 471 270 symbol;
#X obj 471 186 bng 15 250 50 0 empty empty hide 17 7 0 10 -4034 -1
-1;
#X obj 471 206 t b b;
#X msg 471 247 hide;
#X text 400 158 VISIBILITY CONTROLS;
#X text 400 168 *******************;
#X obj 458 473 hsl 128 15 0 1280 0 0 empty empty pos_x -2 -8 0 10 -258113
-1 -1 6800 1;
#X obj 598 473 hsl 128 15 0 720 0 0 empty empty pos_y -2 -8 0 10 -4034
-1 -1 3100 1;
#X obj 401 623 symbol;
#X obj 511 563 f;
#X obj 401 704 s oscmsg;
#X obj 401 655 pack s f f f;
#X obj 401 473 vradio 15 1 0 4 empty empty point 0 -8 0 10 -262144
-1 -1 2;
#X obj 402 563 f;
#X msg 401 603 pos;
#X obj 455 493 t b b b b f;
#X obj 655 563 f;
#X obj 595 493 t b b b f;
#X floatatom 539 563 5 0 0 0 - - -, f 5;
#X floatatom 683 563 5 0 0 0 - - -, f 5;
#X text 400 428 POSITIONS CONTROLS;
#X text 400 438 ******************;
#X msg 401 682 send /puke \$1 \$2 \$3 \$4;
#X obj 631 344 s oscmsg;
#X text 630 158 DEMO CONTROLS;
#X text 630 168 *************;
#X msg 631 322 send /tube/length \$1;
#X obj 634 203 hsl 128 15 5 1000 0 1 empty empty tube_length -2 -8
0 10 -204800 -1 -1 12700 1;
#X obj 631 245 line;
#X floatatom 683 273 5 0 0 0 - - -, f 5;
#X msg 631 223 \$1 300;
#X msg 81 517 puke.png;
#X msg 243 517 mass_prod;
#X connect 0 0 13 0;
#X connect 1 0 13 0;
#X connect 2 0 3 0;
#X connect 3 0 4 0;
#X connect 5 0 20 0;
#X connect 6 0 18 0;
#X connect 7 0 16 0;
#X connect 8 0 15 0;
#X connect 10 0 11 0;
#X connect 11 0 14 0;
#X connect 12 0 4 0;
#X connect 13 0 4 0;
#X connect 14 0 22 0;
#X connect 15 0 10 0;
#X connect 15 1 14 1;
#X connect 16 0 17 0;
#X connect 16 1 14 1;
#X connect 17 0 11 0;
#X connect 18 0 19 0;
#X connect 18 1 14 1;
#X connect 19 0 11 0;
#X connect 20 0 21 0;
#X connect 20 1 14 1;
#X connect 21 0 11 0;
#X connect 22 0 9 0;
#X connect 24 0 30 0;
#X connect 25 0 26 0;
#X connect 26 0 24 0;
#X connect 27 0 24 1;
#X connect 28 0 29 0;
#X connect 29 0 25 0;
#X connect 29 1 79 0;
#X connect 30 0 23 0;
#X connect 31 0 24 1;
#X connect 32 0 33 0;
#X connect 33 0 25 0;
#X connect 33 1 34 0;
#X connect 34 0 31 0;
#X connect 35 0 24 1;
#X connect 36 0 37 0;
#X connect 37 0 25 0;
#X connect 37 1 80 0;
#X connect 43 0 46 0;
#X connect 44 0 45 0;
#X connect 45 0 47 0;
#X connect 46 0 42 0;
#X connect 47 0 43 0;
#X connect 48 0 46 0;
#X connect 49 0 50 0;
#X connect 50 0 51 0;
#X connect 51 0 48 0;
#X connect 54 0 63 0;
#X connect 55 0 65 0;
#X connect 56 0 59 0;
#X connect 57 0 59 2;
#X connect 59 0 70 0;
#X connect 60 0 61 1;
#X connect 61 0 59 1;
#X connect 62 0 56 0;
#X connect 63 0 62 0;
#X connect 63 1 61 0;
#X connect 63 2 57 0;
#X connect 63 3 64 0;
#X connect 63 4 57 1;
#X connect 63 4 66 0;
#X connect 64 0 59 3;
#X connect 65 0 62 0;
#X connect 65 1 61 0;
#X connect 65 2 57 0;
#X connect 65 3 64 0;
#X connect 65 3 67 0;
#X connect 70 0 58 0;
#X connect 74 0 71 0;
#X connect 75 0 78 0;
#X connect 76 0 74 0;
#X connect 76 0 77 0;
#X connect 78 0 76 0;
#X connect 79 0 27 0;
#X connect 80 0 35 0;
